<svg width="20" height="20" viewBox="0 0 20 20" fill="none" xmlns="http://www.w3.org/2000/svg">
<g clip-path="url(#clip0_6474_21002)">
<path fill-rule="evenodd" clip-rule="evenodd" d="M2.85659 2.32478C2.56071 2.32478 2.32087 2.56462 2.32087 2.86049V17.1462C2.32087 17.4421 2.56071 17.6819 2.85659 17.6819H17.1423C17.4382 17.6819 17.678 17.4421 17.678 17.1462V11.4319C17.678 10.9388 18.0777 10.5391 18.5709 10.5391C19.064 10.5391 19.4637 10.9388 19.4637 11.4319V17.1462C19.4637 18.4283 18.4244 19.4676 17.1423 19.4676H2.85659C1.5745 19.4676 0.535156 18.4283 0.535156 17.1462V2.86049C0.535156 1.57841 1.5745 0.539062 2.85659 0.539062H8.57087C9.06398 0.539062 9.46373 0.938808 9.46373 1.43192C9.46373 1.92503 9.06398 2.32478 8.57087 2.32478H2.85659ZM11.9637 1.43192C11.9637 0.938808 12.3635 0.539062 12.8566 0.539062H18.5709C19.064 0.539062 19.4637 0.938808 19.4637 1.43192V7.14621C19.4637 7.63932 19.064 8.03906 18.5709 8.03906C18.0777 8.03906 17.678 7.63932 17.678 7.14621V3.58746L10.6308 10.6347C10.2821 10.9834 9.71679 10.9834 9.3681 10.6347C9.01941 10.286 9.01941 9.72069 9.3681 9.37201L16.4153 2.32478H12.8566C12.3635 2.32478 11.9637 1.92503 11.9637 1.43192Z" fill="#183EC2"/>
</g>
<defs>
<clipPath id="clip0_6474_21002">
<rect width="20" height="20" fill="white"/>
</clipPath>
</defs>
</svg>
