<svg width="20" height="20" viewBox="0 0 20 20" fill="none" xmlns="http://www.w3.org/2000/svg">
<g clip-path="url(#clip0_6474_20999)">
<path fill-rule="evenodd" clip-rule="evenodd" d="M2.7467 2.32478C2.51151 2.32478 2.32087 2.51542 2.32087 2.75061V17.2561C2.32087 17.4912 2.51151 17.6819 2.7467 17.6819H17.2522C17.4873 17.6819 17.678 17.4912 17.678 17.2561V2.75061C17.678 2.51542 17.4873 2.32478 17.2522 2.32478H2.7467ZM0.535156 2.75061C0.535156 1.52921 1.5253 0.539062 2.7467 0.539062H17.2522C18.4736 0.539062 19.4637 1.52921 19.4637 2.75061V17.2561C19.4637 18.4775 18.4736 19.4676 17.2522 19.4676H2.7467C1.5253 19.4676 0.535156 18.4775 0.535156 17.2561V2.75061ZM7.47084 13.1891H6.75656V7.01401C6.75774 6.78482 6.81951 6.56003 6.93559 6.36242C7.05166 6.16479 7.2179 6.00136 7.41747 5.88871C7.61706 5.77603 7.84287 5.71813 8.07204 5.72086C8.2996 5.72358 8.52241 5.78598 8.71824 5.90178L13.9996 8.97069L14.0006 8.97123C14.1977 9.08533 14.3613 9.24923 14.4752 9.44649C14.5892 9.64406 14.6493 9.86818 14.6493 10.0963C14.6493 10.3244 14.5892 10.5485 14.4752 10.7461C14.3614 10.9431 14.198 11.1069 14.0012 11.221L13.9996 11.2219L8.719 14.3046C8.52298 14.4208 8.29989 14.4833 8.07204 14.4861C7.84287 14.4888 7.61706 14.4308 7.41747 14.3182C7.2179 14.2055 7.05166 14.0421 6.93559 13.8445C6.81951 13.6468 6.75776 13.422 6.75657 13.1929L7.47084 13.1891Z" fill="#183EC2"/>
</g>
<defs>
<clipPath id="clip0_6474_20999">
<rect width="20" height="20" fill="white"/>
</clipPath>
</defs>
</svg>
