<svg width="24" height="25" viewBox="0 0 24 25" fill="none" xmlns="http://www.w3.org/2000/svg">
<g clip-path="url(#clip0_5827_21581)">
<path d="M22.2924 23.1116L17.0158 20.6766C16.7677 20.5622 16.6073 20.3115 16.6073 20.0383V17.8473C17.3238 16.8918 17.7488 15.706 17.7488 14.4226V10.4846H19.2319C19.6203 10.4846 19.9351 10.1698 19.9351 9.78145C19.9351 9.39327 19.6203 9.07833 19.2319 9.07833H18.6412V8.3514C18.6412 6.08528 17.4952 4.0821 15.7522 2.89045V2.4433C15.7522 2.05493 15.4374 1.74018 15.0491 1.74018C14.7543 1.74018 14.5023 1.92182 14.3978 2.1789C13.8717 1.97638 13.3136 1.83924 12.7333 1.77753V1.15625C12.7333 0.767884 12.4184 0.453125 12.0302 0.453125C11.6418 0.453125 11.3271 0.767884 11.3271 1.15625V1.77753C10.7466 1.83924 10.1887 1.97638 9.66283 2.17871C9.55827 1.92163 9.30632 1.74018 9.01152 1.74018C8.62334 1.74018 8.30839 2.05493 8.30839 2.4433V2.89008C6.56541 4.08173 5.41898 6.08509 5.41898 8.35121V9.07833H4.82828C4.4401 9.07833 4.12516 9.39308 4.12516 9.78145C4.12516 10.1698 4.4401 10.4846 4.82828 10.4846H6.31144V14.4226C6.31144 15.7058 6.73643 16.8918 7.45311 17.8471V20.0381C7.45311 20.3115 7.29271 20.5622 7.0446 20.6766L1.76785 23.1116C1.46811 23.25 1.30496 23.5783 1.37582 23.9009C1.44669 24.2234 1.73233 24.4532 2.06247 24.4532H21.9978C22.3281 24.4532 22.6137 24.2234 22.6846 23.9009C22.7554 23.5783 22.5923 23.25 22.2924 23.1116ZM9.11021 21.9203C8.82292 21.5531 8.69859 21.1758 8.64677 20.958C8.78374 20.6761 8.85936 20.3626 8.85936 20.0383V19.1792C9.76738 19.7865 10.8581 20.1412 12.0302 20.1412C13.2023 20.1412 14.293 19.7865 15.201 19.1792V20.0383C15.201 20.3771 15.2834 20.7043 15.4325 20.996C15.3723 21.219 15.2419 21.572 14.9687 21.9164C14.3736 22.6666 13.385 23.0469 12.0304 23.0469C10.6776 23.0469 9.69505 22.6679 9.11021 21.9203ZM6.82524 8.3514C6.82524 6.93837 7.3914 5.65534 8.30858 4.71656V5.85713C8.30858 6.24549 8.62334 6.56025 9.0117 6.56025C9.39989 6.56025 9.71465 6.24549 9.71465 5.85713V3.6908C10.2123 3.44251 10.7551 3.27167 11.3271 3.19404V6.71974C11.3271 7.10792 11.6418 7.42287 12.0302 7.42287C12.4184 7.42287 12.7333 7.10792 12.7333 6.71974V3.19404C13.3054 3.27167 13.8481 3.44269 14.3459 3.69099V5.85713C14.3459 6.24549 14.6607 6.56025 15.0491 6.56025C15.4373 6.56025 15.7522 6.24549 15.7522 5.85713V4.71693C16.669 5.65571 17.235 6.93855 17.235 8.3514V9.07833H6.82524V8.3514ZM16.3425 10.4846V14.4226C16.3425 16.8004 14.408 18.735 12.0302 18.735C9.65221 18.735 7.71769 16.8004 7.71769 14.4226V10.4846H16.3425ZM7.52617 22.003C7.62889 22.2273 7.76457 22.4681 7.94383 22.7095C8.03319 22.8299 8.12785 22.9418 8.226 23.0469H5.26426L7.52617 22.003ZM15.8474 23.0469C15.9454 22.9431 16.04 22.8325 16.1298 22.7135C16.3105 22.4738 16.4478 22.2345 16.5526 22.0116L18.7961 23.0469H15.8474Z" fill="white" stroke="white" stroke-width="0.2"/>
</g>
<defs>
<clipPath id="clip0_5827_21581">
<rect width="24" height="24" fill="white" transform="translate(0 0.5)"/>
</clipPath>
</defs>
</svg>
