<svg width="24" height="25" viewBox="0 0 24 25" fill="none" xmlns="http://www.w3.org/2000/svg">
<path d="M21.8391 22.8495C21.1706 20.7651 19.8575 18.9469 18.0893 17.6569C16.3208 16.367 14.1885 15.6719 11.9996 15.6719C9.81071 15.6719 7.67837 16.367 5.90999 17.6569C4.14163 18.9469 2.82857 20.7651 2.16016 22.8495H21.8391Z" fill="white" stroke="white" stroke-width="1.71" stroke-linecap="round" stroke-linejoin="round"/>
<path d="M11.9998 15.687C15.7211 15.687 18.7379 12.6703 18.7379 8.94897C18.7379 5.22765 15.7211 2.21094 11.9998 2.21094C8.27845 2.21094 5.26172 5.22765 5.26172 8.94897C5.26172 12.6703 8.27845 15.687 11.9998 15.687Z" stroke="white" stroke-width="1.71" stroke-linecap="round" stroke-linejoin="round"/>
<path d="M14.2011 11.5547C14.2011 11.5547 13.6421 12.6548 12.001 12.6548C10.3599 12.6548 9.80078 11.5547 9.80078 11.5547" stroke="white" stroke-width="1.71" stroke-linecap="round" stroke-linejoin="round"/>
<path d="M18.6168 7.6661C18.6016 7.66619 18.5867 7.66624 18.5717 7.66624C16.6131 7.66624 14.8547 6.80937 13.6508 5.45006C12.447 6.8094 10.6886 7.66629 8.72998 7.66629C7.59265 7.66629 6.52279 7.37733 5.58984 6.86883C6.46638 4.16552 9.00526 2.21094 12.0007 2.21094C15.2833 2.21094 18.0176 4.55835 18.6168 7.6661Z" stroke="white" stroke-width="1.71" stroke-linecap="round" stroke-linejoin="round"/>
</svg>
