<svg width="40" height="40" viewBox="0 0 40 40" fill="none" xmlns="http://www.w3.org/2000/svg">
<g clip-path="url(#clip0_5827_21553)">
<path d="M32.5 40H7.5C3.3575 40 0 36.6425 0 32.5V7.5C0 3.3575 3.3575 0 7.5 0H32.5C36.6425 0 40 3.3575 40 7.5V32.5C40 36.6425 36.6425 40 32.5 40Z" fill="white"/>
<path d="M29.6825 19.0397L20.4325 10.1734C20.1913 9.94219 19.8088 9.94219 19.5675 10.1734L10.3075 19.0497C10.1125 19.2447 10 19.5159 10 19.7909C10 20.3659 10.4675 20.8322 11.0413 20.8322H12.5V28.7497C12.5 29.4397 13.06 29.9997 13.75 29.9997H17.2913C17.6363 29.9997 17.9163 29.7197 17.9163 29.3747V23.9584C17.9163 23.8434 18.01 23.7497 18.125 23.7497H21.875C21.99 23.7497 22.0837 23.8434 22.0837 23.9584V29.3747C22.0837 29.7197 22.3637 29.9997 22.7087 29.9997H26.25C26.94 29.9997 27.5 29.4397 27.5 28.7497V20.8334H28.9587C29.5337 20.8334 30 20.3659 30 19.7922C30 19.5159 29.8875 19.2447 29.6825 19.0397Z" fill="#183EC2"/>
<path d="M17.5 30.0022H22.5V24.5859C22.5 23.8959 21.94 23.3359 21.25 23.3359H18.75C18.06 23.3359 17.5 23.8959 17.5 24.5859V30.0022Z" fill="#6788FE"/>
</g>
<defs>
<clipPath id="clip0_5827_21553">
<rect width="40" height="40" fill="white"/>
</clipPath>
</defs>
</svg>
