<svg width="24" height="24" viewBox="0 0 24 24" fill="none" xmlns="http://www.w3.org/2000/svg">
<g clip-path="url(#clip0_5906_35063)">
<path fill-rule="evenodd" clip-rule="evenodd" d="M8.83295 0.672615C8.66235 0.629962 8.48386 0.629962 8.31325 0.672615L2.75461 2.06226C1.5145 2.37229 0.644531 3.48654 0.644531 4.76482V20.0878C0.644531 21.9002 2.34769 23.2299 4.10588 22.7904L8.5731 21.6735L15.1704 23.3229C15.341 23.3655 15.5195 23.3655 15.6901 23.3229L21.2487 21.9333C22.4888 21.6233 23.3588 20.509 23.3588 19.2307V3.90768C23.3588 2.09537 21.6557 0.765582 19.8975 1.20513L15.4302 2.32193L8.83295 0.672615ZM3.27433 4.14114L8.5731 2.81646V19.4978C8.48583 19.4978 8.39855 19.5084 8.31325 19.5298L3.58616 20.7115C3.18042 20.813 2.78739 20.5061 2.78739 20.0878V4.76482C2.78739 4.46982 2.98815 4.2127 3.27433 4.14114ZM15.4302 21.1791L20.7291 19.8543C21.0152 19.7829 21.216 19.5257 21.216 19.2307V3.90768C21.216 3.48944 20.8229 3.18257 20.4171 3.284L15.6901 4.46578C15.6048 4.4871 15.5175 4.49777 15.4302 4.49777V21.1791Z" fill="white"/>
</g>
<defs>
<clipPath id="clip0_5906_35063">
<rect width="24" height="24" fill="white"/>
</clipPath>
</defs>
</svg>
