<svg width="24" height="24" viewBox="0 0 24 24" fill="none" xmlns="http://www.w3.org/2000/svg">
<g clip-path="url(#clip0_5906_35099)">
<path fill-rule="evenodd" clip-rule="evenodd" d="M15.5927 2.3992C15.2854 2.09001 14.7856 2.08846 14.4765 2.39575L7.78519 9.04576C7.47602 9.35304 7.47447 9.85277 7.78174 10.162L10.7198 13.1183C11.0271 13.4274 11.5268 13.429 11.836 13.1217L18.5273 6.47169C18.8364 6.16442 18.8379 5.66469 18.5307 5.3555L15.5927 2.3992ZM12.9659 0.875838C14.1145 -0.265685 15.9711 -0.259944 17.1126 0.88866L20.0506 3.84496C21.1922 4.99356 21.1865 6.85008 20.0378 7.99161L17.7761 10.2394L23.5606 16.024C24.1464 16.6098 24.1464 17.5596 23.5606 18.1454C22.9749 18.7311 22.0251 18.7311 21.4394 18.1454L15.6482 12.3542L13.3466 14.6416C12.1979 15.7831 10.3414 15.7774 9.19992 14.6288L6.26184 11.6725C5.12031 10.5239 5.12606 8.66738 6.27466 7.52585L12.9659 0.875838ZM2.78571 17.7828C2.31233 17.7828 1.92857 18.1666 1.92857 18.6399V21.8542H1.07143C0.479695 21.8542 0 22.3339 0 22.9256C0 23.5174 0.479695 23.9971 1.07143 23.9971H13.9286C14.5203 23.9971 15 23.5174 15 22.9256C15 22.3339 14.5203 21.8542 13.9286 21.8542H13.0714V18.6399C13.0714 18.1666 12.6877 17.7828 12.2143 17.7828H2.78571Z" fill="white"/>
</g>
<defs>
<clipPath id="clip0_5906_35099">
<rect width="24" height="24" fill="white"/>
</clipPath>
</defs>
</svg>
