<svg width="24" height="24" viewBox="0 0 24 24" fill="none" xmlns="http://www.w3.org/2000/svg">
<g clip-path="url(#clip0_5934_20615)">
<path fill-rule="evenodd" clip-rule="evenodd" d="M11.9987 0C9.8685 0 8.1416 1.7269 8.1416 3.85714C8.1416 5.98738 9.8685 7.71429 11.9987 7.71429C14.129 7.71429 15.8559 5.98738 15.8559 3.85714C15.8559 1.7269 14.129 0 11.9987 0ZM18.2414 13.8614C17.7199 10.8861 15.1234 8.625 11.9987 8.625C8.87407 8.625 6.27752 10.8861 5.756 13.8614H2.78236C2.19064 13.8614 1.71094 14.3411 1.71094 14.9328C1.71094 15.5245 2.19064 16.0042 2.78236 16.0042H4.11386L4.78876 23.0309C4.84533 23.6199 5.3687 24.0516 5.95772 23.995C6.54674 23.9385 6.97838 23.4151 6.9218 22.8261L6.26658 16.0042H17.7309L17.0758 22.8261C17.0192 23.4151 17.4508 23.9385 18.0398 23.995C18.6288 24.0516 19.1522 23.6199 19.2088 23.0309L19.8837 16.0042H21.2155C21.8073 16.0042 22.287 15.5245 22.287 14.9328C22.287 14.3411 21.8073 13.8614 21.2155 13.8614H18.2414ZM11.9987 17.1591C10.5786 17.1591 9.42731 18.3105 9.42731 19.7306C9.42731 21.1507 10.5786 22.302 11.9987 22.302C13.4189 22.302 14.5702 21.1507 14.5702 19.7306C14.5702 18.3105 13.4189 17.1591 11.9987 17.1591Z" fill="white"/>
</g>
<defs>
<clipPath id="clip0_5934_20615">
<rect width="24" height="24" fill="white"/>
</clipPath>
</defs>
</svg>
