<svg width="24" height="24" viewBox="0 0 24 24" fill="none" xmlns="http://www.w3.org/2000/svg">
<g clip-path="url(#clip0_5906_35105)">
<path fill-rule="evenodd" clip-rule="evenodd" d="M2.97567 2.97176C3.09623 2.85121 3.25974 2.78348 3.43025 2.78348H5.14453C5.73627 2.78348 6.21596 2.30379 6.21596 1.71205C6.21596 1.12032 5.73627 0.640625 5.14453 0.640625H3.43025C2.69142 0.640625 1.98287 0.934119 1.46045 1.45654C0.938026 1.97897 0.644531 2.68752 0.644531 3.42634V5.14062C0.644531 5.73236 1.12423 6.21205 1.71596 6.21205C2.3077 6.21205 2.78739 5.73236 2.78739 5.14062V3.42634C2.78739 3.25584 2.85512 3.09233 2.97567 2.97176ZM18.8588 0.640625C18.267 0.640625 17.7874 1.12032 17.7874 1.71205C17.7874 2.30379 18.267 2.78348 18.8588 2.78348H20.5731C20.7437 2.78348 20.907 2.85121 21.0277 2.97176C21.1482 3.09233 21.216 3.25584 21.216 3.42634V5.14062C21.216 5.73236 21.6956 6.21205 22.2874 6.21205C22.8792 6.21205 23.3588 5.73236 23.3588 5.14062V3.42634C23.3588 2.68752 23.0653 1.97897 22.5428 1.45654C22.0205 0.934119 21.312 0.640625 20.5731 0.640625H18.8588ZM8.35882 1.71205C8.35882 1.12032 8.83851 0.640625 9.43025 0.640625H14.5731C15.1648 0.640625 15.6445 1.12032 15.6445 1.71205C15.6445 2.30379 15.1648 2.78348 14.5731 2.78348H9.43025C8.83851 2.78348 8.35882 2.30379 8.35882 1.71205ZM23.3588 9.42634C23.3588 8.8346 22.8792 8.35491 22.2874 8.35491C21.6956 8.35491 21.216 8.8346 21.216 9.42634V14.5692C21.216 15.1609 21.6956 15.6406 22.2874 15.6406C22.8792 15.6406 23.3588 15.1609 23.3588 14.5692V9.42634ZM1.71596 8.35491C2.3077 8.35491 2.78739 8.8346 2.78739 9.42634V14.5692C2.78739 15.1609 2.3077 15.6406 1.71596 15.6406C1.12423 15.6406 0.644531 15.1609 0.644531 14.5692V9.42634C0.644531 8.8346 1.12423 8.35491 1.71596 8.35491ZM23.3588 18.8549C23.3588 18.2631 22.8792 17.7835 22.2874 17.7835C21.6956 17.7835 21.216 18.2631 21.216 18.8549V20.5692C21.216 20.7398 21.1482 20.9031 21.0277 21.0238C20.907 21.1443 20.7437 21.2121 20.5731 21.2121H18.8588C18.267 21.2121 17.7874 21.6917 17.7874 22.2835C17.7874 22.8753 18.267 23.3549 18.8588 23.3549H20.5731C21.312 23.3549 22.0205 23.0614 22.5428 22.5389C23.0653 22.0166 23.3588 21.3081 23.3588 20.5692V18.8549ZM1.71596 17.7835C2.3077 17.7835 2.78739 18.2631 2.78739 18.8549V20.5692C2.78739 20.7398 2.85512 20.9031 2.97567 21.0238C3.09623 21.1443 3.25974 21.2121 3.43025 21.2121H5.14453C5.73627 21.2121 6.21596 21.6917 6.21596 22.2835C6.21596 22.8753 5.73627 23.3549 5.14453 23.3549H3.43025C2.69142 23.3549 1.98287 23.0614 1.46045 22.5389C0.938026 22.0166 0.644531 21.3081 0.644531 20.5692V18.8549C0.644531 18.2631 1.12423 17.7835 1.71596 17.7835ZM9.43025 21.2121C8.83851 21.2121 8.35882 21.6917 8.35882 22.2835C8.35882 22.8753 8.83851 23.3549 9.43025 23.3549H14.5731C15.1648 23.3549 15.6445 22.8753 15.6445 22.2835C15.6445 21.6917 15.1648 21.2121 14.5731 21.2121H9.43025ZM8.5731 5.99777C7.15294 5.99777 6.00167 7.14903 6.00167 8.5692V15.4263C6.00167 16.8465 7.15294 17.9978 8.5731 17.9978H15.4302C16.8504 17.9978 18.0017 16.8465 18.0017 15.4263V8.5692C18.0017 7.14903 16.8504 5.99777 15.4302 5.99777H8.5731Z" fill="white"/>
</g>
<defs>
<clipPath id="clip0_5906_35105">
<rect width="24" height="24" fill="white"/>
</clipPath>
</defs>
</svg>
