<svg width="24" height="25" viewBox="0 0 24 25" fill="none" xmlns="http://www.w3.org/2000/svg">
<path fill-rule="evenodd" clip-rule="evenodd" d="M2.14286 3.50223V17.2165H11.7857V3.50223H2.14286ZM15.9232 21.7165H17.1429C17.7346 21.7165 18.2143 22.1962 18.2143 22.7879C18.2143 23.3797 17.7346 23.8594 17.1429 23.8594H6.85714C6.26541 23.8594 5.78571 23.3797 5.78571 22.7879C5.78571 22.1962 6.26541 21.7165 6.85714 21.7165H8.07682L9.01968 19.3594H1.92857C0.863451 19.3594 0 18.4959 0 17.4308V3.28795C0 2.22283 0.863451 1.35938 1.92857 1.35938H22.0714C23.1365 1.35938 24 2.22283 24 3.28795V17.4308C24 18.4959 23.1365 19.3594 22.0714 19.3594H14.9803L15.9232 21.7165ZM21.8571 17.2165V13.0686L19.3029 10.7879C18.6881 10.2792 17.9151 10.0009 17.1171 10.0009C16.3192 10.0009 15.5462 10.2792 14.9314 10.7879L13.9286 11.6168V17.2165H21.8571ZM5.14286 6.28795C4.55112 6.28795 4.07143 6.76764 4.07143 7.35938C4.07143 7.95111 4.55112 8.4308 5.14286 8.4308H8.57143C9.16317 8.4308 9.64286 7.95111 9.64286 7.35938C9.64286 6.76764 9.16317 6.28795 8.57143 6.28795H5.14286ZM4.07143 11.6451C4.07143 11.0534 4.55112 10.5737 5.14286 10.5737H6.85714C7.44888 10.5737 7.92857 11.0534 7.92857 11.6451C7.92857 12.2368 7.44888 12.7165 6.85714 12.7165H5.14286C4.55112 12.7165 4.07143 12.2368 4.07143 11.6451Z" fill="white"/>
</svg>
