<svg width="24" height="24" viewBox="0 0 24 24" fill="none" xmlns="http://www.w3.org/2000/svg">
<g clip-path="url(#clip0_5906_35087)">
<path fill-rule="evenodd" clip-rule="evenodd" d="M20.6437 1.3061L19.3993 2.55047C17.3614 0.953348 14.7926 0 12.0017 0C5.37334 0 0 5.37334 0 12.0017C0 12.5934 0.479696 13.0731 1.07143 13.0731C1.66316 13.0731 2.14285 12.5934 2.14285 12.0017C2.14285 6.55679 6.55679 2.14285 12.0017 2.14285C14.2003 2.14285 16.2305 2.86189 17.8707 4.07912L16.4397 5.51003C16.1946 5.75518 16.1213 6.12385 16.2539 6.44415C16.3866 6.76443 16.6991 6.97326 17.0458 6.97326H21.2497C21.7232 6.97326 22.1069 6.58952 22.1069 6.11612V1.91219C22.1069 1.56551 21.8981 1.25296 21.5778 1.12029C21.2574 0.987621 20.8889 1.06096 20.6437 1.3061ZM21.8598 12.0017C21.8598 11.41 22.3395 10.9303 22.9313 10.9303C23.523 10.9303 24.0027 11.41 24.0027 12.0017C24.0027 18.6301 18.6294 24.0034 12.001 24.0034C9.20996 24.0034 6.6411 23.0499 4.60311 21.4527L3.35849 22.6973C3.11336 22.9424 2.74469 23.0158 2.42439 22.8831C2.10409 22.7504 1.89526 22.4379 1.89526 22.0911V17.8872C1.89526 17.4138 2.27902 17.0301 2.7524 17.0301H6.95634C7.30302 17.0301 7.61557 17.239 7.74824 17.5592C7.88091 17.8794 7.80757 18.2482 7.56243 18.4933L6.13174 19.9241C7.77195 21.1414 9.8023 21.8605 12.001 21.8605C17.4459 21.8605 21.8598 17.4466 21.8598 12.0017ZM13.3744 6.90056C13.0399 5.40899 10.9265 5.41967 10.6051 6.91265L10.5694 7.0785C10.1753 8.90871 8.73515 10.3028 6.93918 10.6205C5.40303 10.8922 5.40305 13.1111 6.93918 13.3829C8.73515 13.7006 10.1754 15.0946 10.5694 16.9248L10.6051 17.0907C10.9265 18.5837 13.0399 18.5943 13.3744 17.1028L13.4178 16.9095C13.8267 15.0864 15.2685 13.7028 17.0613 13.3856C18.6005 13.1133 18.6005 10.89 17.0613 10.6177C15.2685 10.3006 13.8267 8.91699 13.4178 7.09386L13.3744 6.90056Z" fill="white"/>
</g>
<defs>
<clipPath id="clip0_5906_35087">
<rect width="24" height="24" fill="white"/>
</clipPath>
</defs>
</svg>
