<svg width="24" height="25" viewBox="0 0 24 25" fill="none" xmlns="http://www.w3.org/2000/svg">
<path fill-rule="evenodd" clip-rule="evenodd" d="M2.78739 6.52929V21.201C2.78739 21.4832 3.01616 21.7121 3.29838 21.7121H20.7049C20.9871 21.7121 21.216 21.4832 21.216 21.201V14.4263H9.43025C8.83851 14.4263 8.35882 13.9466 8.35882 13.3549V6.52929H2.78739ZM3.29838 1.14062C1.8327 1.14062 0.644531 2.3288 0.644531 3.79448V21.201C0.644531 22.6667 1.8327 23.8549 3.29838 23.8549H20.7049C22.1706 23.8549 23.3588 22.6667 23.3588 21.201V13.3549C23.3588 12.7632 22.8792 12.2835 22.2874 12.2835H18.216V8.42634H21.8588C22.6872 8.42634 23.3588 7.75477 23.3588 6.92634C23.3588 6.09791 22.6872 5.42634 21.8588 5.42634H18.216V2.64062C18.216 1.8122 17.5443 1.14062 16.716 1.14062C15.8875 1.14062 15.216 1.8122 15.216 2.64062V5.42634H10.5017V2.21205C10.5017 1.62032 10.022 1.14062 9.43025 1.14062H3.29838ZM15.216 8.42634H10.5017V12.2835H15.216V8.42634Z" fill="white"/>
</svg>
