<svg width="24" height="24" viewBox="0 0 24 24" fill="none" xmlns="http://www.w3.org/2000/svg">
<g clip-path="url(#clip0_5934_20612)">
<path fill-rule="evenodd" clip-rule="evenodd" d="M12.0019 0.648438C11.5858 0.648438 11.1767 0.740903 10.8008 0.917143L10.7735 0.930408L1.72285 5.4904C1.71267 5.49554 1.70256 5.50084 1.69255 5.50629C1.36334 5.68556 1.0981 5.95355 0.917426 6.2704C0.737016 6.58679 0.644762 6.94448 0.644762 7.30439C0.644762 7.6643 0.737016 8.02199 0.917426 8.3384C1.0981 8.65525 1.36334 8.92322 1.69255 9.1025C1.70351 9.10847 1.71458 9.11425 1.72575 9.11984L10.7764 13.6456L10.8008 13.6574C11.1767 13.8336 11.5858 13.9261 12.0019 13.9261C12.418 13.9261 12.8271 13.8336 13.203 13.6574L13.2303 13.6441L22.2809 9.08409C22.2912 9.07897 22.3013 9.07367 22.3112 9.06822C22.6405 8.88896 22.9057 8.62096 23.0864 8.30411C23.2668 7.9877 23.359 7.63002 23.359 7.2701C23.359 6.91019 23.2668 6.5525 23.0864 6.23612C22.9057 5.91926 22.6405 5.65127 22.3112 5.47201C22.3002 5.46602 22.2893 5.46025 22.2781 5.45468L13.2274 0.928953L13.203 0.917143C12.8271 0.740903 12.418 0.648438 12.0019 0.648438ZM23.2453 12.121C23.5107 12.6499 23.2971 13.2938 22.7681 13.5592L13.1681 18.3763C13.1563 18.3823 13.1443 18.388 13.1323 18.3935C12.7693 18.5591 12.3751 18.6448 11.9762 18.6448C11.5773 18.6448 11.1831 18.5591 10.8201 18.3935C10.8073 18.3876 10.7947 18.3816 10.7822 18.3753L1.2336 13.5582C0.705292 13.2916 0.493073 12.6473 0.7596 12.119C1.02613 11.5907 1.67047 11.3784 2.19879 11.645L11.724 16.4503C11.8037 16.4843 11.8895 16.5019 11.9762 16.5019C12.0632 16.5019 12.1493 16.4842 12.2292 16.45L21.807 11.6439C22.3359 11.3785 22.9798 11.5922 23.2453 12.121ZM22.7681 18.2735C23.2971 18.0081 23.5107 17.3642 23.2453 16.8353C22.9798 16.3064 22.3359 16.0928 21.807 16.3582L12.2292 21.1643C12.1493 21.1985 12.0632 21.2162 11.9762 21.2162C11.8895 21.2162 11.8037 21.1985 11.724 21.1646L2.19879 16.3593C1.67047 16.0927 1.02613 16.305 0.7596 16.8333C0.493073 17.3616 0.705292 18.0059 1.2336 18.2724L10.7822 23.0896C10.7947 23.0959 10.8073 23.1019 10.8201 23.1077C11.1831 23.2733 11.5773 23.3591 11.9762 23.3591C12.3751 23.3591 12.7693 23.2733 13.1323 23.1077C13.1443 23.1023 13.1563 23.0966 13.1681 23.0906L22.7681 18.2735Z" fill="white"/>
</g>
<defs>
<clipPath id="clip0_5934_20612">
<rect width="24" height="24" fill="white"/>
</clipPath>
</defs>
</svg>
